<svg width="150" height="146" viewBox="0 0 150 146" fill="none" xmlns="http://www.w3.org/2000/svg">
<path d="M14.1591 25.9376C12.8609 27.5879 11.9123 29.2781 11.2632 30.9584C-8.51864 67.7145 9.82525 119.903 50.807 132.205C89.6917 143.877 136.535 124.334 145.053 82.4869C159.872 9.64487 57.3976 -28.9715 14.1591 25.9376Z" fill="#FAE200"/>
<path d="M120.738 63.2937C120.618 62.0135 120.049 60.7533 119.17 59.8232C118.511 59.1231 117.362 58.2929 115.645 58.2829C115.295 58.2829 114.936 58.3129 114.566 58.383L92.3979 62.6136C92.328 62.6236 92.2481 62.6337 92.1782 62.6337C91.7687 62.6337 91.3793 62.4136 91.1696 62.0535C90.9199 61.6235 90.9599 61.0834 91.2695 60.7034C97.0313 53.6622 102.733 46.781 108.215 40.2399C109.553 38.6497 109.813 36.6494 108.934 34.7591C108.056 32.8787 106.248 31.5685 104.511 31.5585C103.372 31.5585 102.344 32.0986 101.455 33.1587C93.646 42.4703 85.6974 52.1219 77.8186 61.8335C77.5889 62.1135 77.2494 62.2736 76.8999 62.2736C76.7701 62.2736 76.6403 62.2536 76.5104 62.2036C76.0411 62.0336 75.7316 61.5935 75.7316 61.0934L75.7615 30.5283C75.7615 29.0681 75.2522 27.8579 74.2836 27.0277C73.4149 26.2776 72.1666 25.8475 70.8884 25.8475C69.6003 25.8475 68.3621 26.2776 67.4933 27.0277C66.5247 27.8579 66.0053 29.0681 66.0053 30.5283L65.9754 58.4129C65.9754 58.903 65.6758 59.3431 65.2165 59.5131C65.0767 59.5632 64.9369 59.5931 64.7971 59.5931C64.4676 59.5931 64.138 59.4531 63.9184 59.1931C59.5446 54.2323 55.2507 49.1414 51.1365 44.0706C50.2578 42.9904 49.2392 42.4403 48.1108 42.4403C46.4232 42.4403 44.6258 43.7405 43.737 45.5908C42.8283 47.5011 43.068 49.5314 44.3861 51.1517C48.7999 56.5926 53.4233 62.0435 58.1166 67.3444C58.3962 67.6645 58.4861 68.1046 58.3463 68.5046C58.2065 68.9047 57.867 69.2047 57.4476 69.2847L30.0865 74.5056C26.6114 75.1657 26.6114 78.1062 26.6913 78.9964C26.8111 80.2766 27.3803 81.5368 28.259 82.4669C28.9181 83.167 30.0665 83.9972 31.7841 84.0072C32.1336 84.0072 32.4931 83.9772 32.8625 83.9071L61.9012 78.3662C61.9711 78.3562 62.051 78.3462 62.1209 78.3462C62.5303 78.3462 62.9098 78.5563 63.1295 78.9163C63.3891 79.3364 63.3492 79.8765 63.0396 80.2566C58.9554 85.3974 54.8812 90.5683 50.9468 95.6091C49.0994 97.9695 49.9382 100.36 50.3876 101.28C51.2763 103.12 53.0438 104.401 54.6815 104.401C55.7899 104.401 56.7985 103.84 57.6572 102.74C59.6943 100.13 61.7714 97.4794 63.8385 94.859C64.0681 94.5689 64.4076 94.4089 64.7671 94.4089C64.8969 94.4089 65.0268 94.4289 65.1566 94.4789C65.6259 94.6489 65.9454 95.089 65.9454 95.5991L65.9255 111.772C65.9255 113.232 66.4348 114.442 67.4034 115.272C68.2722 116.022 69.5204 116.453 70.7986 116.453C72.0768 116.453 73.325 116.022 74.1937 115.272C75.1623 114.442 75.6816 113.232 75.6816 111.772L75.7016 89.038C75.7016 88.5579 75.9911 88.1279 76.4305 87.9478C76.5803 87.8878 76.7301 87.8578 76.8799 87.8578C77.1895 87.8578 77.4891 87.9779 77.7087 88.2079C86.3465 96.8793 95.4535 105.391 104.8 113.502C105.779 114.352 106.867 114.772 108.036 114.782C110.193 114.782 112.389 113.252 113.148 111.212C113.757 109.571 113.288 107.981 111.84 106.711C100.816 97.1394 90.151 87.0577 80.1353 76.746C79.8357 76.4359 79.7259 75.9859 79.8557 75.5658C79.9855 75.1557 80.335 74.8457 80.7544 74.7657L117.332 67.7845C120.807 67.1244 120.807 64.1839 120.728 63.2937H120.738Z" fill="black"/>
<path d="M73.8043 145.207C65.7258 145.207 57.6273 144.067 49.8683 141.737C39.8426 138.726 30.8454 133.415 23.1264 125.944C15.9765 119.023 10.0849 110.262 6.10053 100.62C-2.74689 79.2164 -1.92806 55.0624 8.27743 35.9493C9.06631 33.9589 10.1847 32.0486 11.5827 30.2783C22.6969 16.166 38.1949 7.12446 56.3891 4.14396C72.9056 1.44352 90.6803 3.98398 106.458 11.3152C113.658 14.6657 120.228 18.9064 125.99 23.9173C131.982 29.1281 136.954 35.0791 140.789 41.6002C144.843 48.4913 147.559 55.9426 148.878 63.7539C150.266 72.0452 150.066 80.7166 148.268 89.5281C146.331 99.0497 142.447 107.781 136.735 115.472C131.372 122.694 124.542 128.815 116.434 133.675C103.742 141.277 88.793 145.217 73.7943 145.217L73.8043 145.207ZM69.5204 9.6649C65.4561 9.6649 61.4119 9.98498 57.4476 10.6351C40.8911 13.3455 26.8111 21.5469 16.7354 34.359C15.6969 35.6792 14.8881 37.0894 14.3189 38.5297L14.249 38.7197L14.1491 38.8997C4.77242 56.3126 4.03348 78.4463 12.1619 98.1095C15.8067 106.931 21.1791 114.922 27.6799 121.223C34.63 127.954 42.7285 132.735 51.7457 135.446C58.9055 137.596 66.3748 138.646 73.8242 138.646C87.6346 138.646 101.395 135.026 113.068 128.025C120.428 123.614 126.619 118.063 131.472 111.542C136.605 104.631 140.1 96.7793 141.838 88.2079C143.465 80.1866 143.655 72.3252 142.397 64.834C141.218 57.8228 138.772 51.1318 135.127 44.9307C131.652 39.0298 127.128 33.6289 121.676 28.8781C116.384 24.2673 110.332 20.3667 103.692 17.2761C92.8972 12.2553 81.0939 9.6649 69.5204 9.6649Z" fill="black"/>
</svg>
