<svg width="1128" height="37" viewBox="0 0 1128 37" fill="none" xmlns="http://www.w3.org/2000/svg">
<path d="M1116.98 9.83838C1040.94 7.51038 964.881 5.7534 888.811 4.6084C815.621 3.5074 742.423 2.96837 669.225 3.00037C597.649 3.03237 526.074 3.60936 454.507 4.71936C384.556 5.80536 314.614 7.3994 244.685 9.4704C175.15 11.5304 105.629 14.0614 36.1268 17.0134C27.4948 17.3804 18.8618 17.7534 10.2308 18.1324C0.615763 18.5544 0.563763 33.5564 10.2308 33.1324C79.6858 30.0824 149.159 27.4384 218.647 25.2634C288.452 23.0784 358.272 21.3634 428.1 20.1524C499.467 18.9154 570.843 18.2044 642.221 18.0374C715.144 17.8664 788.069 18.2604 860.986 19.2154C936.704 20.2074 1012.41 21.8034 1088.11 23.9784C1097.73 24.2554 1107.36 24.5414 1116.98 24.8364C1126.61 25.1314 1126.63 10.1314 1116.98 9.83637L1116.98 9.83838Z" fill="#00BCB5"/>
<path d="M682.951 0.000976562C751.589 0.03787 820.226 0.576 888.855 1.6084C964.922 2.75335 1040.98 4.5103 1117.02 6.83789C1117.04 6.83811 1117.06 6.8373 1117.08 6.83789C1120.34 6.9376 1122.95 8.31598 1124.71 10.4238C1126.42 12.4734 1127.21 15.0733 1127.21 17.5596C1127.21 20.0426 1126.41 22.6398 1124.65 24.6406C1122.83 26.7095 1120.15 27.9349 1116.89 27.835C1112.08 27.6875 1107.27 27.5424 1102.46 27.3994L1088.02 26.9775C1012.34 24.803 936.648 23.2066 860.946 22.2148C788.045 21.26 715.135 20.8661 642.228 21.0371C570.865 21.2041 499.504 21.9156 428.151 23.1523C358.338 24.3631 288.532 26.0771 218.74 28.2617C153.608 30.3004 88.488 32.7514 23.3828 35.5625L10.3623 36.1299C7.09512 36.2732 4.39671 35.0858 2.55959 33.0215C0.785424 31.0277 -0.00428526 28.4268 1.74836e-05 25.9443C0.00860885 21.0133 3.29895 15.4342 10.0996 15.1357C18.7318 14.7567 27.3659 14.3827 35.999 14.0156C105.513 11.0631 175.047 8.53208 244.596 6.47168C314.538 4.40028 384.495 2.80595 454.46 1.71973C526.042 0.609496 597.632 0.0320067 669.224 0L682.951 0.000976562ZM669.226 6C597.665 6.032 526.106 6.60899 454.554 7.71875C384.617 8.80452 314.689 10.3982 244.773 12.4688C175.252 14.5283 105.744 17.0593 36.2539 20.0107C27.6234 20.3777 18.9918 20.7509 10.3623 21.1299C7.54805 21.2534 6.00447 23.3857 6.00002 25.9551C5.99787 27.2227 6.40759 28.3193 7.04201 29.0322C7.6135 29.6745 8.53354 30.2044 10.0996 30.1357C79.5661 27.0852 149.051 24.4401 218.553 22.2646C288.371 20.0792 358.205 18.3646 428.048 17.1533C499.43 15.9161 570.821 15.2041 642.214 15.0371C715.152 14.8661 788.093 15.2606 861.025 16.2158C936.759 17.208 1012.48 18.8041 1088.19 20.9795C1097.82 21.2565 1107.45 21.5428 1117.08 21.8379C1118.63 21.8853 1119.56 21.3463 1120.15 20.6768C1120.8 19.9389 1121.21 18.8224 1121.21 17.5557C1121.21 16.2921 1120.8 15.1052 1120.1 14.2686C1119.46 13.4957 1118.47 12.8911 1116.92 12.8359C1116.91 12.8357 1116.9 12.8373 1116.89 12.8369C1040.86 10.5094 964.819 8.75315 888.766 7.6084C815.591 6.50763 742.408 5.96801 669.226 6Z" fill="#00BCB5"/>
</svg>
