<svg width="200" height="200" viewBox="0 0 200 200" fill="none" xmlns="http://www.w3.org/2000/svg">
<g clip-path="url(#clip0_4_2293)">
<path d="M100 200C155.228 200 200 155.228 200 100C200 44.7715 155.228 0 100 0C44.7715 0 0 44.7715 0 100C0 155.228 44.7715 200 100 200Z" fill="#231F20"/>
<path d="M63.3541 93.9782C63.6661 93.6349 64.0093 93.2917 64.3525 92.9485C65.8502 91.4509 66.9423 90.2964 67.9095 89.142C71.5912 84.9298 73.6193 80.7176 74.2433 75.8502V75.663C74.3057 75.0702 74.3682 74.3838 74.3682 73.6661C74.3682 69.3604 72.8705 65.6162 70.0936 62.8081C67.0983 59.7192 63.2293 57.7847 58.5179 57.0359H58.4243C56.6146 56.7863 54.805 56.6615 52.8081 56.6615C48.7207 56.6615 44.571 57.2543 40.5148 58.4087C34.8674 60.0312 29.4696 62.3401 24.5086 65.273L24.1653 65.4914C22.1373 66.6147 20.078 67.9563 18.0811 69.3916C15.3042 71.3885 13.3697 73.5725 12.2153 76.0998L12.0593 76.4743C11.56 77.8783 11.3104 79.22 11.3104 80.4368C11.3104 82.9017 12.1529 85.0858 13.8689 86.9579C16.0218 89.2668 18.7363 90.4212 21.9813 90.4212C25.2262 90.4212 23.7597 90.2964 24.6334 90.078C24.6334 92.6677 24.4774 95.195 24.1965 97.5663V97.7535C23.9157 102.153 23.7597 105.429 23.7597 107.52C23.7597 109.61 23.7597 109.267 23.7909 110.14C23.7909 110.952 23.8221 111.825 23.8221 112.605C23.8221 114.883 23.6973 117.161 23.4165 119.47C22.7925 119.626 22.1061 119.813 21.3572 120.218L21.1076 120.343C17.8003 122.278 15.9906 125.491 15.9906 129.329C15.9906 133.167 16.1778 131.669 16.521 132.761L16.5834 132.917C18.2059 137.192 22.1685 139.969 28.4711 141.186C31.4352 141.716 34.2121 141.997 36.7394 141.997C39.2667 141.997 39.2355 141.934 40.234 141.778C52.4337 140.624 62.1061 136.318 69.0015 128.955L69.0639 128.861C74.4306 123.151 75.2106 117.535 75.2106 114.727V113.76C75.2106 109.142 73.8377 104.867 71.1232 101.092C69.0951 98.2215 66.4742 95.819 63.3229 93.947L63.3541 93.9782ZM54.0249 79.5008C53.4009 80.78 52.3713 81.9657 50.8424 83.1201C48.0967 85.2106 44.8206 86.5211 41.3884 86.8955C40.702 86.9579 40.4836 86.8331 40.4524 86.7707C40.3588 86.6459 40.3588 86.3651 40.3588 86.1466C40.3588 85.2106 40.2028 82.7457 40.078 80.3744C39.9532 78.4087 39.8596 76.5367 39.8284 75.7254C39.8284 75.5382 39.8284 75.351 39.8596 75.2262C39.922 75.1014 40.0468 74.9766 40.1716 74.883C41.014 74.1342 42.1997 73.8222 43.3229 73.4789C43.5413 73.4165 43.7909 73.3541 44.0093 73.2917C45.2886 72.9173 46.599 72.6365 47.9095 72.4493C50.156 72.1685 53.0889 72.8549 54.1809 75.0702C54.805 76.3495 54.7738 78.0031 54.0249 79.532V79.5008ZM47.3791 107.207H47.7535C48.2215 107.207 48.6583 107.207 49.0951 107.27C51.0296 107.488 52.6833 108.144 53.9001 109.173C55.2106 110.296 55.9594 111.919 55.9906 113.697C55.9906 115.694 55.1482 117.66 53.6817 119.002C50.2496 122.122 46.131 123.432 41.1388 123.027C40.2964 122.964 39.8284 122.59 39.766 121.872C39.7036 120.967 39.6724 120.031 39.6412 119.158V118.752C39.5788 116.786 39.5476 114.477 39.7036 112.231V111.607C39.7348 110.671 39.766 109.267 40.2964 108.768C41.1388 107.894 43.7597 107.332 47.3479 107.239L47.3791 107.207Z" fill="#FCE200"/>
<path d="M187.223 95.0702L187.129 94.8206C185.413 90.8892 182.98 88.2995 179.86 87.1451C177.395 86.2402 174.961 85.7722 172.652 85.7722C167.941 85.7722 158.705 87.4571 157.364 93.8221C156.833 96.3806 156.583 99.0327 156.615 101.654C156.615 103.027 156.802 104.587 157.863 105.647C159.173 106.958 160.952 106.833 162.481 106.708C163.292 106.646 164.072 106.583 164.727 106.708C165.164 106.802 165.725 106.989 165.85 107.332C166.131 108.112 164.914 109.704 164.197 110.671L163.916 111.045C161.482 114.321 158.892 116.942 156.209 118.783L156.115 118.846C154.524 120 153.214 120.562 152.153 120.562C151.092 120.562 151.654 120.562 151.03 120.031C149.251 118.19 148.315 114.571 148.315 109.548C148.315 99.376 151.092 89.61 156.552 80.4992L156.615 80.4056C156.833 80.0624 157.02 79.688 157.239 79.2824C159.485 75.2574 161.482 72.3245 165.039 73.7909C167.91 74.9766 170.967 74.7894 173.401 73.2917C175.772 71.8253 177.208 69.3292 177.426 66.2402C177.676 62.5273 176.365 58.7207 173.869 55.975C173.245 55.2886 172.652 54.7894 172.028 54.4462C169.282 52.9485 166.693 51.7317 163.042 51.7317C159.392 51.7317 159.298 52.0125 157.364 52.6053C153.994 53.6661 150.967 55.3198 148.315 57.5663L148.253 57.6287C140.983 64.0874 135.554 72.6677 132.09 83.0889C129.095 91.9189 127.598 101.31 127.598 110.983C127.598 120.655 127.598 111.576 127.598 111.794V111.856H127.535C125.913 111.763 121.139 110.328 114.649 107.956C118.643 104.212 121.7 100.749 124.009 97.3791C126.162 94.3214 127.566 91.4196 128.19 88.7987C128.752 86.521 129.002 84.5866 129.002 83.0265C129.002 80.5616 128.534 78.0655 127.66 75.5694V75.4758C125.32 69.5164 120.702 64.8674 113.931 61.7161H113.869C109.438 59.7192 104.696 58.3151 99.7972 57.5663C93.0889 56.5366 87.4103 56.3182 82.0125 56.9423C80.9517 57.0671 79.766 57.2543 78.7364 57.9407C77.0827 59.0639 76.5211 61.1544 76.2091 62.8705C75.273 68.0499 77.7067 112.949 78.6116 123.12C78.7676 124.805 78.8612 126.583 78.8924 128.736C78.9548 131.482 79.1732 134.072 79.3604 136.006C79.3916 136.443 79.454 136.911 79.4852 137.348V137.473C79.4852 138.97 79.7348 140.468 80.2652 141.903L80.4524 142.371C82.3245 146.022 85.6318 148.019 89.7816 148.019C93.9314 148.019 91.9657 147.863 93.0265 147.488C95.585 146.646 97.5195 144.805 98.6428 142.153L98.7988 141.747C99.2356 140.281 99.454 138.846 99.454 137.41C99.454 135.975 99.3604 135.694 99.2668 134.945C99.2044 134.509 99.1732 134.041 99.142 133.697C99.1108 131.513 98.986 129.236 98.7676 126.459V126.334C98.6428 125.242 98.5492 124.119 98.4868 122.995C100.889 123.744 103.385 124.805 105.757 125.835H105.819C108.222 126.895 110.187 127.675 111.966 128.331L113.276 128.799C115.242 129.516 117.894 130.515 120.671 130.515C123.448 130.515 125.944 129.485 127.785 127.488C128.721 126.521 129.407 125.554 129.875 124.618C132.028 130.796 135.803 135.538 140.858 138.44L140.983 138.502C144.633 140.406 148.378 141.373 152.153 141.373C155.928 141.373 156.271 141.092 158.268 140.499C163.51 138.97 168.346 136.193 172.652 132.2C177.8 127.332 181.794 121.997 184.509 116.349C188.128 109.173 188.409 103.463 188.409 101.872C188.409 99.5008 188.003 97.2543 187.192 94.9766L187.223 95.0702ZM107.598 88.7051C106.381 90.7332 104.228 91.9813 101.888 93.1669L101.763 93.2293C100.172 94.0717 98.3619 94.9766 96.6147 94.9766C96.4587 94.9766 96.3651 94.9454 96.2715 94.883C95.8034 94.6022 95.8034 93.3853 95.8034 92.5117C95.8034 92.1061 95.8034 91.7317 95.7722 91.3884C95.3666 87.1763 95.0546 82.9329 94.8986 78.6895C94.8674 77.8159 94.8986 76.7551 95.5226 76.3494C95.741 76.1934 96.0531 76.1622 96.3963 76.1622C96.7395 76.1622 96.9579 76.1934 97.2387 76.2246C100.858 76.6927 104.009 77.2543 106.287 79.688C108.627 82.1529 109.189 86.053 107.598 88.7051Z" fill="#FCE200"/>
</g>
<defs>
<clipPath id="clip0_4_2293">
<rect width="200" height="200" fill="white"/>
</clipPath>
</defs>
</svg>
